<svg width="211" height="68" viewBox="0 0 211 68" fill="none" xmlns="http://www.w3.org/2000/svg">
<path d="M45.2468 22.9028H11.4263C10.674 22.9028 10.0641 23.5126 10.0641 24.265V52.6262C10.0641 53.3785 10.674 53.9883 11.4263 53.9883H17.4557V63.5462C17.4557 65.7637 19.2534 67.5616 21.4711 67.5616C23.6887 67.5616 25.4866 65.7639 25.4866 63.5462V53.9883H31.1029V63.5462C31.1029 65.7637 32.9006 67.5616 35.1183 67.5616C37.3359 67.5616 39.1338 65.7639 39.1338 63.5462V53.9883H45.2469C45.9993 53.9883 46.6091 53.3785 46.6091 52.6262V24.265C46.6089 23.5126 45.9991 22.9028 45.2468 22.9028Z" fill="#6FC148"/>
<path d="M4.33848 22.8962C2.12089 22.8962 0.323029 24.6939 0.323029 26.9116V43.2208C0.323029 45.4384 2.12073 47.2363 4.33848 47.2363C6.55608 47.2363 8.35394 45.4386 8.35394 43.2208V26.9116C8.35378 24.694 6.55608 22.8962 4.33848 22.8962Z" fill="#6FC148"/>
<path d="M52.3361 22.8962C50.1185 22.8962 48.3206 24.6939 48.3206 26.9116V43.2208C48.3206 45.4384 50.1183 47.2363 52.3361 47.2363C54.5537 47.2363 56.3515 45.4386 56.3515 43.2208V26.9116C56.3515 24.694 54.5538 22.8962 52.3361 22.8962Z" fill="#6FC148"/>
<path d="M11.6995 20.9143H44.8928C45.7587 20.9143 46.4045 20.1166 46.2267 19.2691C45.1287 14.0361 41.797 9.62607 37.2761 7.07847L40.1137 1.95858C40.3057 1.61194 40.1805 1.17511 39.8339 0.983073C39.4864 0.790554 39.0502 0.916264 38.8582 1.26289L35.9992 6.42136C33.6575 5.33467 31.0477 4.72774 28.2962 4.72774C25.5444 4.72774 22.9347 5.33467 20.593 6.42136L17.7339 1.26273C17.5417 0.915941 17.1049 0.790877 16.7584 0.982911C16.4118 1.17495 16.2866 1.61178 16.4786 1.95841L19.3162 7.07831C14.7953 9.62607 11.4636 14.0359 10.3656 19.2691C10.1876 20.1166 10.8334 20.9143 11.6995 20.9143ZM38.2006 13.2841C38.2006 14.1365 37.5096 14.8276 36.6571 14.8276C35.8047 14.8276 35.1135 14.1366 35.1135 13.2841C35.1135 12.4317 35.8045 11.7406 36.6571 11.7406C37.5096 11.7406 38.2006 12.4317 38.2006 13.2841ZM19.9349 11.7406C20.7873 11.7406 21.4784 12.4316 21.4784 13.2841C21.4784 14.1365 20.7874 14.8276 19.9349 14.8276C19.0825 14.8276 18.3914 14.1366 18.3914 13.2841C18.3914 12.4317 19.0824 11.7406 19.9349 11.7406Z" fill="#6FC148"/>
<path d="M79.5083 29.4963C79.3742 29.4963 79.2602 29.4494 79.1664 29.3556C79.0725 29.2617 79.0256 29.1478 79.0256 29.0137V15.9221C79.0256 15.7746 79.0725 15.654 79.1664 15.5601C79.2602 15.4663 79.3742 15.4193 79.5083 15.4193H84.4151C85.7692 15.4193 86.8819 15.6271 87.7534 16.0427C88.6382 16.4584 89.3018 17.0751 89.7442 17.8929C90.2001 18.7107 90.4347 19.7095 90.4481 20.8893C90.4749 21.4792 90.4883 22.002 90.4883 22.4578C90.4883 22.9137 90.4749 23.4298 90.4481 24.0063C90.4213 25.2531 90.1934 26.2854 89.7644 27.1032C89.3353 27.9076 88.6851 28.5109 87.8137 28.9131C86.9557 29.3019 85.8563 29.4963 84.5156 29.4963H79.5083ZM81.8209 27.1837H84.4151C85.1659 27.1837 85.7759 27.0764 86.2451 26.8619C86.7143 26.6474 87.0562 26.3056 87.2707 25.8363C87.4986 25.3537 87.6193 24.7236 87.6327 23.946C87.6461 23.5438 87.6528 23.1952 87.6528 22.9003C87.6662 22.5919 87.6662 22.2903 87.6528 21.9953C87.6528 21.687 87.6461 21.3384 87.6327 20.9496C87.6059 19.8502 87.331 19.0391 86.8082 18.5163C86.2853 17.9934 85.4541 17.732 84.3145 17.732H81.8209V27.1837ZM97.5494 29.6974C96.4769 29.6974 95.572 29.5097 94.8346 29.1344C94.1106 28.759 93.5542 28.2294 93.1655 27.5457C92.7901 26.8619 92.5756 26.0642 92.5219 25.1526C92.5085 24.9113 92.5018 24.6163 92.5018 24.2677C92.5018 23.9192 92.5085 23.6242 92.5219 23.3829C92.5756 22.4578 92.7968 21.6601 93.1856 20.9898C93.5878 20.3061 94.1508 19.7765 94.8748 19.4011C95.6122 19.0257 96.5037 18.838 97.5494 18.838C98.5952 18.838 99.48 19.0257 100.204 19.4011C100.941 19.7765 101.504 20.3061 101.893 20.9898C102.295 21.6601 102.523 22.4578 102.577 23.3829C102.59 23.6242 102.597 23.9192 102.597 24.2677C102.597 24.6163 102.59 24.9113 102.577 25.1526C102.523 26.0642 102.302 26.8619 101.913 27.5457C101.538 28.2294 100.982 28.759 100.244 29.1344C99.5202 29.5097 98.622 29.6974 97.5494 29.6974ZM97.5494 27.7065C98.26 27.7065 98.8097 27.4853 99.1985 27.0429C99.5872 26.5871 99.8018 25.9235 99.842 25.052C99.8554 24.8509 99.8621 24.5895 99.8621 24.2677C99.8621 23.946 99.8554 23.6845 99.842 23.4834C99.8018 22.6254 99.5872 21.9685 99.1985 21.5127C98.8097 21.0568 98.26 20.8289 97.5494 20.8289C96.8389 20.8289 96.2892 21.0568 95.9004 21.5127C95.5116 21.9685 95.2971 22.6254 95.2569 23.4834C95.2435 23.6845 95.2368 23.946 95.2368 24.2677C95.2368 24.5895 95.2435 24.8509 95.2569 25.052C95.2971 25.9235 95.5116 26.5871 95.9004 27.0429C96.2892 27.4853 96.8389 27.7065 97.5494 27.7065ZM107.386 29.4963C107.199 29.4963 107.058 29.4494 106.964 29.3556C106.87 29.2617 106.79 29.1411 106.723 28.9936L103.847 19.6625C103.833 19.5955 103.827 19.5352 103.827 19.4816C103.827 19.3609 103.867 19.2603 103.947 19.1799C104.041 19.0861 104.142 19.0391 104.249 19.0391H105.737C105.898 19.0391 106.025 19.0861 106.119 19.1799C106.213 19.2603 106.267 19.3408 106.28 19.4212L108.251 26.0776L110.342 19.4816C110.369 19.3877 110.43 19.2939 110.523 19.2C110.617 19.0928 110.758 19.0391 110.946 19.0391H111.951C112.139 19.0391 112.28 19.0928 112.373 19.2C112.467 19.2939 112.528 19.3877 112.554 19.4816L114.646 26.0776L116.617 19.4212C116.63 19.3408 116.677 19.2603 116.757 19.1799C116.851 19.0861 116.979 19.0391 117.14 19.0391H118.628C118.748 19.0391 118.849 19.0861 118.929 19.1799C119.023 19.2603 119.07 19.3609 119.07 19.4816C119.07 19.5352 119.057 19.5955 119.03 19.6625L116.154 28.9936C116.114 29.1411 116.04 29.2617 115.933 29.3556C115.839 29.4494 115.698 29.4963 115.511 29.4963H114.204C114.016 29.4963 113.868 29.4494 113.761 29.3556C113.654 29.2617 113.58 29.1411 113.54 28.9936L111.448 22.6388L109.357 28.9936C109.303 29.1411 109.223 29.2617 109.116 29.3556C109.022 29.4494 108.874 29.4963 108.673 29.4963H107.386ZM121.51 29.4963C121.376 29.4963 121.262 29.4494 121.168 29.3556C121.074 29.2617 121.027 29.1478 121.027 29.0137V19.5218C121.027 19.3877 121.074 19.2738 121.168 19.1799C121.262 19.0861 121.376 19.0391 121.51 19.0391H123.159C123.293 19.0391 123.407 19.0861 123.501 19.1799C123.594 19.2738 123.641 19.3877 123.641 19.5218V20.3463C123.99 19.9173 124.432 19.562 124.969 19.2805C125.518 18.9855 126.195 18.838 127 18.838C127.818 18.838 128.528 19.0257 129.131 19.4011C129.735 19.7631 130.197 20.2793 130.519 20.9496C130.854 21.6199 131.022 22.4243 131.022 23.3628V29.0137C131.022 29.1478 130.975 29.2617 130.881 29.3556C130.787 29.4494 130.673 29.4963 130.539 29.4963H128.769C128.635 29.4963 128.521 29.4494 128.428 29.3556C128.334 29.2617 128.287 29.1478 128.287 29.0137V23.4834C128.287 22.7059 128.092 22.0959 127.704 21.6534C127.328 21.211 126.779 20.9898 126.055 20.9898C125.357 20.9898 124.801 21.211 124.385 21.6534C123.97 22.0959 123.762 22.7059 123.762 23.4834V29.0137C123.762 29.1478 123.715 29.2617 123.621 29.3556C123.527 29.4494 123.413 29.4963 123.279 29.4963H121.51ZM134.079 29.4963C133.945 29.4963 133.831 29.4494 133.737 29.3556C133.643 29.2617 133.596 29.1478 133.596 29.0137V15.7009C133.596 15.5668 133.643 15.4529 133.737 15.359C133.831 15.2652 133.945 15.2182 134.079 15.2182H135.748C135.882 15.2182 135.996 15.2652 136.09 15.359C136.184 15.4529 136.231 15.5668 136.231 15.7009V29.0137C136.231 29.1478 136.184 29.2617 136.09 29.3556C135.996 29.4494 135.882 29.4963 135.748 29.4963H134.079ZM143.524 29.6974C142.451 29.6974 141.546 29.5097 140.809 29.1344C140.085 28.759 139.528 28.2294 139.14 27.5457C138.764 26.8619 138.55 26.0642 138.496 25.1526C138.483 24.9113 138.476 24.6163 138.476 24.2677C138.476 23.9192 138.483 23.6242 138.496 23.3829C138.55 22.4578 138.771 21.6601 139.16 20.9898C139.562 20.3061 140.125 19.7765 140.849 19.4011C141.586 19.0257 142.478 18.838 143.524 18.838C144.569 18.838 145.454 19.0257 146.178 19.4011C146.915 19.7765 147.479 20.3061 147.867 20.9898C148.27 21.6601 148.497 22.4578 148.551 23.3829C148.564 23.6242 148.571 23.9192 148.571 24.2677C148.571 24.6163 148.564 24.9113 148.551 25.1526C148.497 26.0642 148.276 26.8619 147.887 27.5457C147.512 28.2294 146.956 28.759 146.218 29.1344C145.494 29.5097 144.596 29.6974 143.524 29.6974ZM143.524 27.7065C144.234 27.7065 144.784 27.4853 145.173 27.0429C145.561 26.5871 145.776 25.9235 145.816 25.052C145.83 24.8509 145.836 24.5895 145.836 24.2677C145.836 23.946 145.83 23.6845 145.816 23.4834C145.776 22.6254 145.561 21.9685 145.173 21.5127C144.784 21.0568 144.234 20.8289 143.524 20.8289C142.813 20.8289 142.263 21.0568 141.875 21.5127C141.486 21.9685 141.271 22.6254 141.231 23.4834C141.218 23.6845 141.211 23.946 141.211 24.2677C141.211 24.5895 141.218 24.8509 141.231 25.052C141.271 25.9235 141.486 26.5871 141.875 27.0429C142.263 27.4853 142.813 27.7065 143.524 27.7065ZM153.836 29.6974C153.139 29.6974 152.509 29.5634 151.946 29.2952C151.382 29.0137 150.933 28.645 150.598 28.1892C150.276 27.72 150.116 27.1971 150.116 26.6206C150.116 25.6821 150.491 24.9381 151.242 24.3884C152.006 23.8253 153.011 23.4499 154.258 23.2622L157.013 22.86V22.4377C157.013 21.8746 156.873 21.4389 156.591 21.1306C156.309 20.8222 155.827 20.668 155.143 20.668C154.66 20.668 154.265 20.7686 153.957 20.9697C153.662 21.1574 153.44 21.4121 153.293 21.7339C153.186 21.9082 153.032 21.9953 152.83 21.9953H151.242C151.094 21.9953 150.98 21.9551 150.9 21.8746C150.833 21.7942 150.799 21.687 150.799 21.5529C150.813 21.3384 150.9 21.077 151.061 20.7686C151.222 20.4602 151.476 20.1653 151.825 19.8838C152.173 19.5888 152.623 19.3408 153.172 19.1397C153.722 18.9386 154.386 18.838 155.163 18.838C156.008 18.838 156.718 18.9453 157.295 19.1598C157.885 19.3609 158.354 19.6357 158.703 19.9843C159.051 20.3329 159.306 20.7418 159.467 21.211C159.628 21.6803 159.708 22.1763 159.708 22.6992V29.0137C159.708 29.1478 159.661 29.2617 159.567 29.3556C159.473 29.4494 159.359 29.4963 159.225 29.4963H157.596C157.449 29.4963 157.328 29.4494 157.235 29.3556C157.154 29.2617 157.114 29.1478 157.114 29.0137V28.2294C156.94 28.4841 156.705 28.7255 156.41 28.9534C156.115 29.1679 155.753 29.3489 155.324 29.4963C154.908 29.6304 154.412 29.6974 153.836 29.6974ZM154.52 27.787C154.989 27.787 155.411 27.6864 155.787 27.4853C156.175 27.2842 156.477 26.9759 156.692 26.5603C156.919 26.1313 157.033 25.595 157.033 24.9515V24.5292L155.022 24.8509C154.231 24.9716 153.642 25.166 153.253 25.4341C152.864 25.7023 152.67 26.0307 152.67 26.4195C152.67 26.7145 152.757 26.9692 152.931 27.1837C153.119 27.3848 153.353 27.539 153.635 27.6462C153.916 27.7401 154.211 27.787 154.52 27.787ZM166.169 29.6974C165.472 29.6974 164.855 29.5835 164.319 29.3556C163.796 29.1142 163.36 28.7791 163.012 28.3501C162.663 27.9211 162.395 27.4183 162.207 26.8418C162.02 26.2519 161.913 25.6084 161.886 24.9113C161.872 24.6699 161.866 24.4554 161.866 24.2677C161.866 24.0666 161.872 23.8454 161.886 23.6041C161.913 22.9338 162.013 22.3104 162.187 21.7339C162.375 21.1574 162.643 20.6546 162.992 20.2256C163.354 19.7832 163.796 19.4413 164.319 19.2C164.855 18.9587 165.472 18.838 166.169 18.838C166.893 18.838 167.503 18.9654 167.999 19.2201C168.509 19.4614 168.931 19.7765 169.266 20.1653V15.7009C169.266 15.5668 169.306 15.4529 169.387 15.359C169.481 15.2652 169.601 15.2182 169.749 15.2182H171.458C171.592 15.2182 171.706 15.2652 171.8 15.359C171.894 15.4529 171.941 15.5668 171.941 15.7009V29.0137C171.941 29.1478 171.894 29.2617 171.8 29.3556C171.706 29.4494 171.592 29.4963 171.458 29.4963H169.869C169.722 29.4963 169.601 29.4494 169.507 29.3556C169.427 29.2617 169.387 29.1478 169.387 29.0137V28.2696C169.052 28.6852 168.623 29.0271 168.1 29.2952C167.59 29.5634 166.947 29.6974 166.169 29.6974ZM166.913 27.5457C167.476 27.5457 167.925 27.4183 168.261 27.1636C168.596 26.9089 168.844 26.5871 169.005 26.1983C169.166 25.7961 169.253 25.3872 169.266 24.9716C169.28 24.7303 169.286 24.4755 169.286 24.2074C169.286 23.9259 169.28 23.6644 169.266 23.4231C169.253 23.0209 169.159 22.6388 168.985 22.2768C168.81 21.9015 168.556 21.5931 168.22 21.3518C167.885 21.1105 167.449 20.9898 166.913 20.9898C166.35 20.9898 165.901 21.1172 165.566 21.3719C165.244 21.6132 165.009 21.935 164.862 22.3372C164.715 22.7394 164.627 23.1818 164.601 23.6644C164.587 24.0666 164.587 24.4688 164.601 24.871C164.627 25.3537 164.715 25.7961 164.862 26.1983C165.009 26.6005 165.244 26.929 165.566 27.1837C165.901 27.425 166.35 27.5457 166.913 27.5457ZM179.94 29.4963C179.806 29.4963 179.692 29.4494 179.599 29.3556C179.505 29.2617 179.458 29.1478 179.458 29.0137V15.9221C179.458 15.7746 179.505 15.654 179.599 15.5601C179.692 15.4663 179.806 15.4193 179.94 15.4193H188.668C188.816 15.4193 188.936 15.4663 189.03 15.5601C189.124 15.654 189.171 15.7746 189.171 15.9221V17.3298C189.171 17.4773 189.124 17.5979 189.03 17.6918C188.936 17.7722 188.816 17.8124 188.668 17.8124H182.213V21.6333H188.266C188.413 21.6333 188.534 21.6803 188.628 21.7741C188.722 21.8679 188.769 21.9886 188.769 22.1361V23.5438C188.769 23.6778 188.722 23.7918 188.628 23.8856C188.534 23.9795 188.413 24.0264 188.266 24.0264H182.213V29.0137C182.213 29.1478 182.166 29.2617 182.072 29.3556C181.978 29.4494 181.858 29.4963 181.71 29.4963H179.94ZM195.723 29.6974C194.651 29.6974 193.746 29.5097 193.008 29.1344C192.284 28.759 191.728 28.2294 191.339 27.5457C190.964 26.8619 190.749 26.0642 190.696 25.1526C190.682 24.9113 190.676 24.6163 190.676 24.2677C190.676 23.9192 190.682 23.6242 190.696 23.3829C190.749 22.4578 190.97 21.6601 191.359 20.9898C191.761 20.3061 192.325 19.7765 193.049 19.4011C193.786 19.0257 194.677 18.838 195.723 18.838C196.769 18.838 197.654 19.0257 198.378 19.4011C199.115 19.7765 199.678 20.3061 200.067 20.9898C200.469 21.6601 200.697 22.4578 200.751 23.3829C200.764 23.6242 200.771 23.9192 200.771 24.2677C200.771 24.6163 200.764 24.9113 200.751 25.1526C200.697 26.0642 200.476 26.8619 200.087 27.5457C199.712 28.2294 199.155 28.759 198.418 29.1344C197.694 29.5097 196.796 29.6974 195.723 29.6974ZM195.723 27.7065C196.434 27.7065 196.983 27.4853 197.372 27.0429C197.761 26.5871 197.975 25.9235 198.016 25.052C198.029 24.8509 198.036 24.5895 198.036 24.2677C198.036 23.946 198.029 23.6845 198.016 23.4834C197.975 22.6254 197.761 21.9685 197.372 21.5127C196.983 21.0568 196.434 20.8289 195.723 20.8289C195.013 20.8289 194.463 21.0568 194.074 21.5127C193.685 21.9685 193.471 22.6254 193.431 23.4834C193.417 23.6845 193.411 23.946 193.411 24.2677C193.411 24.5895 193.417 24.8509 193.431 25.052C193.471 25.9235 193.685 26.5871 194.074 27.0429C194.463 27.4853 195.013 27.7065 195.723 27.7065ZM203.482 29.4963C203.347 29.4963 203.234 29.4494 203.14 29.3556C203.046 29.2617 202.999 29.1478 202.999 29.0137V19.5419C202.999 19.3944 203.046 19.2738 203.14 19.1799C203.234 19.0861 203.347 19.0391 203.482 19.0391H205.11C205.245 19.0391 205.358 19.0861 205.452 19.1799C205.56 19.2738 205.613 19.3944 205.613 19.5419V20.3664C205.922 19.9374 206.317 19.6089 206.8 19.381C207.296 19.1531 207.866 19.0391 208.509 19.0391H209.334C209.481 19.0391 209.595 19.0861 209.675 19.1799C209.769 19.2738 209.816 19.3877 209.816 19.5218V20.9697C209.816 21.1038 209.769 21.2177 209.675 21.3116C209.595 21.4054 209.481 21.4523 209.334 21.4523H207.765C207.121 21.4523 206.619 21.6333 206.257 21.9953C205.908 22.3573 205.734 22.8533 205.734 23.4834V29.0137C205.734 29.1478 205.687 29.2617 205.593 29.3556C205.499 29.4494 205.379 29.4963 205.231 29.4963H203.482Z" fill="black"/>
<path d="M103.873 58.0002L102.652 55.0032H94.1605L92.9395 58.0002H88.3608L96.1308 38.936H100.71L108.48 58.0002H103.873ZM95.5758 51.5345H101.237L98.4063 44.5692L95.5758 51.5345ZM118.913 43.3205C122.021 43.3205 124.241 45.6237 124.241 48.8705V58.0002H120.328V49.7307C120.328 47.9547 119.218 46.7337 117.609 46.7337C115.916 46.7337 114.612 47.9547 114.612 49.5087L114.584 49.4255V58.0002H110.532V43.6535H114.584V45.4572C115.444 44.153 117.054 43.3205 118.913 43.3205ZM138.373 38.603H142.424V58.0002H138.373V55.9467C137.235 57.4452 135.57 58.3332 133.544 58.3332C129.715 58.3332 126.94 55.2252 126.94 50.813C126.94 46.4285 129.715 43.3205 133.544 43.3205C135.57 43.3205 137.235 44.2085 138.373 45.707V38.603ZM134.71 54.92C136.847 54.92 138.373 53.2272 138.373 50.813C138.373 48.4265 136.847 46.7337 134.71 46.7337C132.462 46.7337 130.88 48.4265 130.88 50.813C130.88 53.2272 132.462 54.92 134.71 54.92ZM150.032 46.3175C150.976 44.4582 152.752 43.3205 154.944 43.3205V46.7337C151.947 46.7337 150.032 48.4542 150.032 51.146V58.0002H145.981V43.6535H150.032V46.3175ZM164.004 58.3332C159.731 58.3332 156.151 54.8922 156.151 50.813C156.151 46.7337 159.731 43.3205 164.004 43.3205C168.25 43.3205 171.802 46.7337 171.802 50.813C171.802 54.8922 168.25 58.3332 164.004 58.3332ZM164.004 54.92C166.141 54.92 167.945 53.033 167.945 50.813C167.945 48.593 166.141 46.7337 164.004 46.7337C161.84 46.7337 160.036 48.593 160.036 50.813C160.036 53.033 161.84 54.92 164.004 54.92ZM176.569 41.6832C175.321 41.6832 174.349 40.6842 174.349 39.4632C174.349 38.3255 175.321 37.2987 176.569 37.2987C177.763 37.2987 178.734 38.3255 178.734 39.4632C178.734 40.6842 177.763 41.6832 176.569 41.6832ZM174.516 58.0002V43.6535H178.567V58.0002H174.516ZM192.816 38.603H196.867V58.0002H192.816V55.9467C191.678 57.4452 190.013 58.3332 187.987 58.3332C184.158 58.3332 181.383 55.2252 181.383 50.813C181.383 46.4285 184.158 43.3205 187.987 43.3205C190.013 43.3205 191.678 44.2085 192.816 45.707V38.603ZM189.153 54.92C191.29 54.92 192.816 53.2272 192.816 50.813C192.816 48.4265 191.29 46.7337 189.153 46.7337C186.905 46.7337 185.323 48.4265 185.323 50.813C185.323 53.2272 186.905 54.92 189.153 54.92Z" fill="black"/>
</svg>
