<svg width="199" height="62" viewBox="0 0 199 62" fill="none" xmlns="http://www.w3.org/2000/svg">
<path d="M48.4029 21.6247C48.0466 21.8977 41.7565 25.3983 41.7565 33.1821C41.7565 42.1854 49.7604 45.3705 50 45.4493C49.9631 45.6435 48.7285 49.8114 45.78 54.0582C43.1509 57.7954 40.4051 61.5265 36.228 61.5265C32.051 61.5265 30.976 59.1301 26.154 59.1301C21.4548 59.1301 19.784 61.6054 15.9632 61.6054C12.1425 61.6054 9.47653 58.1473 6.41132 53.9005C2.86083 48.9135 -0.0078125 41.1661 -0.0078125 33.8131C-0.0078125 22.0191 7.75658 15.7641 15.3981 15.7641C19.4584 15.7641 22.8431 18.3972 25.3923 18.3972C27.8187 18.3972 31.6026 15.6064 36.2219 15.6064C37.9726 15.6064 44.2627 15.7641 48.4029 21.6247ZM34.029 10.6134C35.9393 8.37469 37.2907 5.26846 37.2907 2.16222C37.2907 1.73147 37.2539 1.29466 37.174 0.94278C34.0658 1.05805 30.3679 2.98731 28.1381 5.54147C26.3874 7.50713 24.7535 10.6134 24.7535 13.7621C24.7535 14.2353 24.8333 14.7085 24.8702 14.8602C25.0667 14.8966 25.3862 14.939 25.7056 14.939C28.4944 14.939 32.0019 13.0947 34.029 10.6134Z" fill="black"/>
<path d="M74.4053 26.4964C74.2779 26.4964 74.1697 26.4518 74.0805 26.3627C73.9913 26.2735 73.9467 26.1652 73.9467 26.0378V13.598C73.9467 13.4578 73.9913 13.3432 74.0805 13.254C74.1697 13.1648 74.2779 13.1202 74.4053 13.1202H79.0679C80.3546 13.1202 81.4119 13.3177 82.24 13.7126C83.0808 14.1075 83.7113 14.6935 84.1317 15.4706C84.5649 16.2477 84.7878 17.1968 84.8005 18.3178C84.826 18.8784 84.8388 19.3752 84.8388 19.8083C84.8388 20.2415 84.826 20.7319 84.8005 21.2797C84.7751 22.4645 84.5585 23.4454 84.1508 24.2225C83.7432 24.9868 83.1253 25.5601 82.2973 25.9423C81.482 26.3117 80.4374 26.4964 79.1634 26.4964H74.4053ZM76.6029 24.2989H79.0679C79.7813 24.2989 80.3609 24.197 80.8068 23.9932C81.2527 23.7893 81.5775 23.4645 81.7814 23.0186C81.9979 22.56 82.1126 21.9613 82.1253 21.2224C82.138 20.8402 82.1444 20.509 82.1444 20.2287C82.1572 19.9357 82.1572 19.6491 82.1444 19.3688C82.1444 19.0758 82.138 18.7446 82.1253 18.3752C82.0998 17.3306 81.8387 16.5598 81.3418 16.063C80.845 15.5662 80.0552 15.3178 78.9724 15.3178H76.6029V24.2989ZM91.5484 26.6875C90.5292 26.6875 89.6693 26.5092 88.9687 26.1525C88.2807 25.7958 87.7521 25.2926 87.3826 24.6429C87.0259 23.9932 86.8221 23.2352 86.7711 22.3689C86.7584 22.1396 86.752 21.8594 86.752 21.5281C86.752 21.1969 86.7584 20.9166 86.7711 20.6873C86.8221 19.8083 87.0323 19.0504 87.4017 18.4134C87.7839 17.7637 88.319 17.2605 89.0069 16.9038C89.7075 16.5471 90.5547 16.3687 91.5484 16.3687C92.542 16.3687 93.3828 16.5471 94.0707 16.9038C94.7714 17.2605 95.3064 17.7637 95.6759 18.4134C96.058 19.0504 96.2746 19.8083 96.3256 20.6873C96.3383 20.9166 96.3447 21.1969 96.3447 21.5281C96.3447 21.8594 96.3383 22.1396 96.3256 22.3689C96.2746 23.2352 96.0644 23.9932 95.695 24.6429C95.3383 25.2926 94.8096 25.7958 94.1089 26.1525C93.421 26.5092 92.5675 26.6875 91.5484 26.6875ZM91.5484 24.7957C92.2235 24.7957 92.7458 24.5855 93.1153 24.1652C93.4847 23.732 93.6885 23.1014 93.7268 22.2734C93.7395 22.0823 93.7459 21.8339 93.7459 21.5281C93.7459 21.2224 93.7395 20.974 93.7268 20.7829C93.6885 19.9676 93.4847 19.3434 93.1153 18.9102C92.7458 18.4771 92.2235 18.2605 91.5484 18.2605C90.8732 18.2605 90.3509 18.4771 89.9814 18.9102C89.612 19.3434 89.4082 19.9676 89.3699 20.7829C89.3572 20.974 89.3508 21.2224 89.3508 21.5281C89.3508 21.8339 89.3572 22.0823 89.3699 22.2734C89.4082 23.1014 89.612 23.732 89.9814 24.1652C90.3509 24.5855 90.8732 24.7957 91.5484 24.7957ZM100.895 26.4964C100.717 26.4964 100.583 26.4518 100.494 26.3627C100.405 26.2735 100.329 26.1588 100.265 26.0187L97.5323 17.1522C97.5195 17.0885 97.5131 17.0312 97.5131 16.9802C97.5131 16.8656 97.5514 16.77 97.6278 16.6936C97.717 16.6044 97.8125 16.5598 97.9144 16.5598H99.3285C99.4814 16.5598 99.6024 16.6044 99.6916 16.6936C99.7807 16.77 99.8317 16.8465 99.8444 16.9229L101.717 23.2479L103.704 16.9802C103.73 16.8911 103.787 16.8019 103.876 16.7127C103.966 16.6108 104.099 16.5598 104.278 16.5598H105.233C105.411 16.5598 105.545 16.6108 105.634 16.7127C105.724 16.8019 105.781 16.8911 105.806 16.9802L107.794 23.2479L109.666 16.9229C109.679 16.8465 109.724 16.77 109.8 16.6936C109.889 16.6044 110.01 16.5598 110.163 16.5598H111.577C111.692 16.5598 111.787 16.6044 111.864 16.6936C111.953 16.77 111.998 16.8656 111.998 16.9802C111.998 17.0312 111.985 17.0885 111.959 17.1522L109.227 26.0187C109.189 26.1588 109.119 26.2735 109.017 26.3627C108.927 26.4518 108.794 26.4964 108.615 26.4964H107.373C107.195 26.4964 107.055 26.4518 106.953 26.3627C106.851 26.2735 106.781 26.1588 106.743 26.0187L104.755 19.9803L102.768 26.0187C102.717 26.1588 102.641 26.2735 102.539 26.3627C102.45 26.4518 102.309 26.4964 102.118 26.4964H100.895ZM114.316 26.4964C114.188 26.4964 114.08 26.4518 113.991 26.3627C113.902 26.2735 113.857 26.1652 113.857 26.0378V17.0184C113.857 16.8911 113.902 16.7828 113.991 16.6936C114.08 16.6044 114.188 16.5598 114.316 16.5598H115.883C116.01 16.5598 116.118 16.6044 116.208 16.6936C116.297 16.7828 116.341 16.8911 116.341 17.0184V17.8019C116.673 17.3943 117.093 17.0567 117.603 16.7891C118.125 16.5089 118.768 16.3687 119.532 16.3687C120.31 16.3687 120.985 16.5471 121.558 16.9038C122.131 17.2478 122.571 17.7382 122.877 18.3752C123.195 19.0121 123.354 19.7765 123.354 20.6682V26.0378C123.354 26.1652 123.31 26.2735 123.221 26.3627C123.131 26.4518 123.023 26.4964 122.896 26.4964H121.214C121.087 26.4964 120.978 26.4518 120.889 26.3627C120.8 26.2735 120.755 26.1652 120.755 26.0378V20.7829C120.755 20.044 120.571 19.4644 120.201 19.044C119.845 18.6236 119.322 18.4134 118.634 18.4134C117.972 18.4134 117.443 18.6236 117.048 19.044C116.653 19.4644 116.456 20.044 116.456 20.7829V26.0378C116.456 26.1652 116.411 26.2735 116.322 26.3627C116.233 26.4518 116.125 26.4964 115.997 26.4964H114.316ZM126.259 26.4964C126.132 26.4964 126.024 26.4518 125.934 26.3627C125.845 26.2735 125.801 26.1652 125.801 26.0378V13.3878C125.801 13.2604 125.845 13.1521 125.934 13.0629C126.024 12.9737 126.132 12.9292 126.259 12.9292H127.845C127.973 12.9292 128.081 12.9737 128.17 13.0629C128.259 13.1521 128.304 13.2604 128.304 13.3878V26.0378C128.304 26.1652 128.259 26.2735 128.17 26.3627C128.081 26.4518 127.973 26.4964 127.845 26.4964H126.259ZM135.234 26.6875C134.215 26.6875 133.355 26.5092 132.654 26.1525C131.966 25.7958 131.437 25.2926 131.068 24.6429C130.711 23.9932 130.507 23.2352 130.456 22.3689C130.444 22.1396 130.437 21.8594 130.437 21.5281C130.437 21.1969 130.444 20.9166 130.456 20.6873C130.507 19.8083 130.718 19.0504 131.087 18.4134C131.469 17.7637 132.004 17.2605 132.692 16.9038C133.393 16.5471 134.24 16.3687 135.234 16.3687C136.227 16.3687 137.068 16.5471 137.756 16.9038C138.457 17.2605 138.992 17.7637 139.361 18.4134C139.743 19.0504 139.96 19.8083 140.011 20.6873C140.024 20.9166 140.03 21.1969 140.03 21.5281C140.03 21.8594 140.024 22.1396 140.011 22.3689C139.96 23.2352 139.75 23.9932 139.38 24.6429C139.024 25.2926 138.495 25.7958 137.794 26.1525C137.106 26.5092 136.253 26.6875 135.234 26.6875ZM135.234 24.7957C135.909 24.7957 136.431 24.5855 136.801 24.1652C137.17 23.732 137.374 23.1014 137.412 22.2734C137.425 22.0823 137.431 21.8339 137.431 21.5281C137.431 21.2224 137.425 20.974 137.412 20.7829C137.374 19.9676 137.17 19.3434 136.801 18.9102C136.431 18.4771 135.909 18.2605 135.234 18.2605C134.559 18.2605 134.036 18.4771 133.667 18.9102C133.297 19.3434 133.093 19.9676 133.055 20.7829C133.043 20.974 133.036 21.2224 133.036 21.5281C133.036 21.8339 133.043 22.0823 133.055 22.2734C133.093 23.1014 133.297 23.732 133.667 24.1652C134.036 24.5855 134.559 24.7957 135.234 24.7957ZM145.033 26.6875C144.37 26.6875 143.771 26.5601 143.236 26.3053C142.701 26.0378 142.275 25.6875 141.956 25.2544C141.65 24.8085 141.498 24.3117 141.498 23.7639C141.498 22.8721 141.854 22.1651 142.568 21.6428C143.294 21.1077 144.249 20.751 145.434 20.5727L148.052 20.1905V19.7892C148.052 19.2542 147.918 18.8402 147.651 18.5472C147.383 18.2542 146.924 18.1077 146.275 18.1077C145.816 18.1077 145.44 18.2032 145.147 18.3943C144.867 18.5726 144.657 18.8147 144.517 19.1204C144.415 19.286 144.268 19.3688 144.077 19.3688H142.568C142.427 19.3688 142.319 19.3306 142.243 19.2542C142.179 19.1777 142.147 19.0758 142.147 18.9484C142.16 18.7446 142.243 18.4962 142.396 18.2032C142.548 17.9102 142.791 17.6299 143.122 17.3624C143.453 17.0821 143.88 16.8465 144.402 16.6554C144.924 16.4643 145.555 16.3687 146.294 16.3687C147.096 16.3687 147.772 16.4707 148.319 16.6745C148.88 16.8656 149.326 17.1267 149.657 17.458C149.988 17.7892 150.23 18.1777 150.383 18.6236C150.536 19.0695 150.612 19.5408 150.612 20.0376V26.0378C150.612 26.1652 150.568 26.2735 150.479 26.3627C150.389 26.4518 150.281 26.4964 150.154 26.4964H148.606C148.466 26.4964 148.351 26.4518 148.262 26.3627C148.186 26.2735 148.147 26.1652 148.147 26.0378V25.2926C147.982 25.5346 147.759 25.7639 147.479 25.9805C147.198 26.1843 146.854 26.3563 146.447 26.4964C146.052 26.6238 145.58 26.6875 145.033 26.6875ZM145.682 24.8722C146.128 24.8722 146.53 24.7766 146.886 24.5855C147.256 24.3945 147.542 24.1015 147.746 23.7065C147.963 23.2989 148.071 22.7893 148.071 22.1778V21.7765L146.16 22.0823C145.408 22.1969 144.848 22.3817 144.478 22.6364C144.109 22.8912 143.924 23.2033 143.924 23.5728C143.924 23.853 144.007 24.0951 144.173 24.2989C144.351 24.49 144.574 24.6365 144.842 24.7384C145.109 24.8276 145.389 24.8722 145.682 24.8722ZM156.752 26.6875C156.089 26.6875 155.503 26.5792 154.994 26.3627C154.497 26.1334 154.083 25.8149 153.752 25.4072C153.421 24.9996 153.166 24.5218 152.987 23.9741C152.809 23.4135 152.707 22.8021 152.682 22.1396C152.669 21.9103 152.663 21.7065 152.663 21.5281C152.663 21.337 152.669 21.1268 152.682 20.8975C152.707 20.2606 152.803 19.6682 152.968 19.1204C153.147 18.5726 153.401 18.0949 153.733 17.6873C154.077 17.2669 154.497 16.942 154.994 16.7127C155.503 16.4834 156.089 16.3687 156.752 16.3687C157.44 16.3687 158.019 16.4898 158.491 16.7318C158.975 16.9611 159.376 17.2605 159.695 17.6299V13.3878C159.695 13.2604 159.733 13.1521 159.809 13.0629C159.898 12.9737 160.013 12.9292 160.153 12.9292H161.778C161.905 12.9292 162.013 12.9737 162.102 13.0629C162.192 13.1521 162.236 13.2604 162.236 13.3878V26.0378C162.236 26.1652 162.192 26.2735 162.102 26.3627C162.013 26.4518 161.905 26.4964 161.778 26.4964H160.268C160.128 26.4964 160.013 26.4518 159.924 26.3627C159.848 26.2735 159.809 26.1652 159.809 26.0378V25.3308C159.491 25.7257 159.083 26.0506 158.586 26.3053C158.102 26.5601 157.491 26.6875 156.752 26.6875ZM157.459 24.6429C157.994 24.6429 158.421 24.5218 158.739 24.2798C159.058 24.0378 159.293 23.732 159.446 23.3626C159.599 22.9804 159.682 22.5919 159.695 22.1969C159.707 21.9676 159.714 21.7256 159.714 21.4708C159.714 21.2033 159.707 20.9549 159.695 20.7256C159.682 20.3434 159.593 19.9803 159.427 19.6364C159.262 19.2797 159.019 18.9867 158.701 18.7574C158.382 18.528 157.968 18.4134 157.459 18.4134C156.924 18.4134 156.497 18.5344 156.179 18.7765C155.873 19.0058 155.65 19.3115 155.51 19.6937C155.37 20.0759 155.287 20.4963 155.261 20.9549C155.249 21.337 155.249 21.7192 155.261 22.1014C155.287 22.56 155.37 22.9804 155.51 23.3626C155.65 23.7448 155.873 24.0569 156.179 24.2989C156.497 24.5282 156.924 24.6429 157.459 24.6429ZM169.838 26.4964C169.71 26.4964 169.602 26.4518 169.513 26.3627C169.424 26.2735 169.379 26.1652 169.379 26.0378V13.598C169.379 13.4578 169.424 13.3432 169.513 13.254C169.602 13.1648 169.71 13.1202 169.838 13.1202H178.131C178.271 13.1202 178.386 13.1648 178.475 13.254C178.564 13.3432 178.609 13.4578 178.609 13.598V14.9356C178.609 15.0757 178.564 15.1904 178.475 15.2795C178.386 15.356 178.271 15.3942 178.131 15.3942H171.997V19.0249H177.749C177.889 19.0249 178.003 19.0695 178.093 19.1586C178.182 19.2478 178.226 19.3625 178.226 19.5026V20.8402C178.226 20.9676 178.182 21.0759 178.093 21.1651C178.003 21.2542 177.889 21.2988 177.749 21.2988H171.997V26.0378C171.997 26.1652 171.952 26.2735 171.863 26.3627C171.774 26.4518 171.659 26.4964 171.519 26.4964H169.838ZM184.835 26.6875C183.815 26.6875 182.956 26.5092 182.255 26.1525C181.567 25.7958 181.038 25.2926 180.669 24.6429C180.312 23.9932 180.108 23.2352 180.057 22.3689C180.045 22.1396 180.038 21.8594 180.038 21.5281C180.038 21.1969 180.045 20.9166 180.057 20.6873C180.108 19.8083 180.318 19.0504 180.688 18.4134C181.07 17.7637 181.605 17.2605 182.293 16.9038C182.994 16.5471 183.841 16.3687 184.835 16.3687C185.828 16.3687 186.669 16.5471 187.357 16.9038C188.058 17.2605 188.593 17.7637 188.962 18.4134C189.344 19.0504 189.561 19.8083 189.612 20.6873C189.625 20.9166 189.631 21.1969 189.631 21.5281C189.631 21.8594 189.625 22.1396 189.612 22.3689C189.561 23.2352 189.351 23.9932 188.981 24.6429C188.624 25.2926 188.096 25.7958 187.395 26.1525C186.707 26.5092 185.854 26.6875 184.835 26.6875ZM184.835 24.7957C185.51 24.7957 186.032 24.5855 186.401 24.1652C186.771 23.732 186.975 23.1014 187.013 22.2734C187.026 22.0823 187.032 21.8339 187.032 21.5281C187.032 21.2224 187.026 20.974 187.013 20.7829C186.975 19.9676 186.771 19.3434 186.401 18.9102C186.032 18.4771 185.51 18.2605 184.835 18.2605C184.159 18.2605 183.637 18.4771 183.268 18.9102C182.898 19.3434 182.694 19.9676 182.656 20.7829C182.643 20.974 182.637 21.2224 182.637 21.5281C182.637 21.8339 182.643 22.0823 182.656 22.2734C182.694 23.1014 182.898 23.732 183.268 24.1652C183.637 24.5855 184.159 24.7957 184.835 24.7957ZM192.207 26.4964C192.079 26.4964 191.971 26.4518 191.882 26.3627C191.793 26.2735 191.748 26.1652 191.748 26.0378V17.0376C191.748 16.8974 191.793 16.7828 191.882 16.6936C191.971 16.6044 192.079 16.5598 192.207 16.5598H193.754C193.882 16.5598 193.99 16.6044 194.079 16.6936C194.181 16.7828 194.232 16.8974 194.232 17.0376V17.821C194.525 17.4134 194.901 17.1013 195.36 16.8847C195.831 16.6681 196.372 16.5598 196.984 16.5598H197.767C197.907 16.5598 198.016 16.6044 198.092 16.6936C198.181 16.7828 198.226 16.8911 198.226 17.0184V18.3943C198.226 18.5217 198.181 18.63 198.092 18.7191C198.016 18.8083 197.907 18.8529 197.767 18.8529H196.277C195.665 18.8529 195.188 19.0249 194.844 19.3688C194.512 19.7128 194.347 20.1841 194.347 20.7829V26.0378C194.347 26.1652 194.302 26.2735 194.213 26.3627C194.124 26.4518 194.009 26.4964 193.869 26.4964H192.207Z" fill="black"/>
<path d="M106.152 56.0003V34.8751H110.703V56.0003H106.152ZM125.312 56.3693C119.255 56.3693 114.089 51.3571 114.089 45.4223C114.089 39.4876 119.255 34.5061 125.312 34.5061C131.432 34.5061 136.536 39.4876 136.536 45.4223C136.536 51.3571 131.432 56.3693 125.312 56.3693ZM125.312 52.2488C128.879 52.2488 131.893 49.1123 131.893 45.4223C131.893 41.7631 128.879 38.6266 125.312 38.6266C121.776 38.6266 118.763 41.7631 118.763 45.4223C118.763 49.1123 121.776 52.2488 125.312 52.2488ZM147.868 56.3693C144.209 56.3693 140.949 55.1393 138.489 52.8638L141.103 49.7581C143.102 51.4801 145.377 52.5256 148.053 52.5256C150.328 52.5256 151.497 51.4801 151.497 50.1578C151.497 48.6511 150.267 48.1898 147.038 47.4518C142.579 46.4371 139.412 45.1763 139.412 41.0866C139.412 37.1813 142.61 34.5061 147.222 34.5061C150.666 34.5061 153.342 35.5823 155.494 37.4273L153.126 40.6868C151.251 39.1801 149.129 38.3498 147.099 38.3498C145.162 38.3498 143.994 39.3646 143.994 40.6253C143.994 42.1628 145.254 42.6548 148.514 43.3928C153.065 44.4076 156.078 45.7606 156.078 49.6658C156.078 53.6941 153.034 56.3693 147.868 56.3693Z" fill="black"/>
</svg>
