<svg width="745" height="890" viewBox="0 0 745 890" fill="none" xmlns="http://www.w3.org/2000/svg">
<path d="M150.825 232.815C150.825 232.815 120.487 206.711 112.946 206.711C105.405 206.711 65.3217 239.196 65.3217 242.444C65.3217 245.693 64.7997 254.916 68.0481 263.037C71.2965 271.158 75.067 279.279 75.067 279.279C75.067 279.279 49.6017 298.248 56.0985 313.388C62.5954 328.528 89.1049 318.783 89.1049 318.783C89.1049 318.783 88.0027 347.497 106.449 364.261C124.896 381.025 139.456 385.898 166.023 378.357C177.741 374.992 186.79 366.581 193.287 358.228C201.35 347.845 205.526 335.025 205.526 321.857V320.407L236.908 302.018C236.908 302.018 244.507 294.999 240.679 290.649C236.85 286.298 232.558 286.298 229.309 287.922C226.061 289.547 204.946 301.438 204.946 301.438C204.946 301.438 191.72 285.66 188.182 282.47C185.456 280.033 181.685 275.973 184.934 272.724C188.182 269.476 195.607 260.195 196.999 256.83C198.681 252.712 199.029 242.966 193.055 235.947C187.08 228.928 178.437 228.348 172.462 228.348C166.487 228.348 150.825 232.815 150.825 232.815Z" fill="#AF3824"/>
<path d="M140.79 428.123C139.108 425.455 135.975 424.005 132.843 424.469C113.352 427.427 45.2512 440.537 16.8275 482.477C-16.4689 531.609 9.92457 616.881 9.92457 616.881C9.92457 616.881 13.9851 636.778 36.7241 572.215C59.4631 507.652 109.408 503.592 133.365 511.713C157.322 519.834 170.316 531.203 197.521 559.221C224.727 587.239 247.466 668.044 232.848 726.922C218.23 785.801 134.583 779.71 113.062 780.116C91.5413 780.522 150.825 822.752 200.77 823.564C250.714 824.376 286.041 787.831 354.258 788.237C389.875 788.469 428.508 803.145 457.28 817.183C479.961 828.204 501.075 842.068 520.45 858.195C531.819 867.65 545.973 879.135 556.067 886.096C590.349 909.764 557.691 820.721 493.534 756.159C464.415 726.807 363.597 647.335 335.173 616.475C306.75 585.615 275.89 522.27 287.259 429.689C298.629 337.109 358.725 218.076 364.235 167.377C366.962 142.608 364.235 106.643 352.054 88.8923C347.471 82.2214 337.088 85.1798 336.798 93.2429C335.638 127.468 328.735 195.163 295.38 256.71C258.197 325.333 231.63 357.469 222.117 367.969C219.854 370.463 219.448 374.06 221.014 377.018C228.613 391.114 249.67 432.59 255.587 470.237C259.357 494.194 262.78 523.43 246.654 527.607C234.182 530.855 209.007 512.177 188.704 490.482C164.631 464.784 147.171 438.217 140.732 428.065L140.79 428.123Z" fill="#AF3824"/>
<path d="M151.755 418.087C133.135 423.946 219.914 524.938 243.987 518.383C249.788 516.817 256.691 497.906 243.697 452.718C234.416 420.524 220.784 396.508 214.809 385.081C213.069 381.774 208.719 381.02 205.934 383.573C199.031 389.953 188.88 406.486 151.755 418.087Z" fill="#AF3824"/>
<path d="M378.387 63.2602C376.647 62.6801 374.965 64.3043 375.545 66.0446C380.882 82.2288 398.4 141.629 379.779 172.315C367.424 192.618 367.366 215.937 368.294 227.539C368.526 230.323 371.948 231.425 373.805 229.395C382.738 219.418 404.143 198.883 431.812 193.604C543.767 172.315 575.439 138.207 580.312 124.401C584.546 112.393 547.828 135.77 500.725 138.207C453.623 140.643 438.193 150.388 438.193 150.388C438.193 150.388 449.911 87.8556 378.271 63.2602H378.387Z" fill="#D3CA48"/>
<path d="M586.987 0.202751C583.391 -0.95741 580.316 3.10315 582.463 6.23558C599.343 31.4111 638.788 104.037 580.78 165.758C521.961 228.29 425.9 236.411 375.549 271.1C375.549 271.1 273.398 325.164 310.465 498.318C329.781 588.636 379.32 628.662 405.133 643.86C411.224 647.456 418.649 641.945 416.967 635.042C407.047 593.915 386.107 487.354 420.099 434.973C462.735 369.192 513.898 348.483 513.898 348.483C513.898 348.483 692.967 266.866 692.967 136.522C692.909 43.0707 616.223 9.60005 586.987 0.202751Z" fill="#3E70A1"/>
<path d="M513.432 369.535C515.346 368.375 517.492 370.695 516.1 372.494C504.557 387.112 484.138 419.596 482.166 467.627C480.019 521.4 497.306 558.177 504.267 570.649C505.195 572.273 507.631 571.867 507.979 570.069C510.995 554.697 523.003 509.799 562.332 487.639C616.163 457.359 599.109 482.593 599.109 482.593C599.109 482.593 566.277 545.067 565.001 614.097C563.376 702.617 603.982 771.937 615.351 793.574C626.721 815.211 524.395 774.895 453.452 672.279C395.386 588.283 413.195 431.198 513.432 369.593V369.535Z" fill="#B7692B"/>
<path d="M624.459 442.691L589.944 581.156C585.129 603.199 584.027 625.88 586.812 648.271C592.38 692.706 617.208 749.205 683.51 736.676C772.436 719.911 750.625 631.101 701.899 619.209C682.698 614.511 653.578 610.218 638.322 608.072C632.928 607.318 629.331 602.097 630.549 596.76L733.803 146.734C733.803 146.734 737.051 126.779 724.87 126.779C712.688 126.779 706.423 133.218 703.755 146.734C701.725 157.059 693.836 201.03 682.64 223.421C669.646 249.408 652.592 286.243 584.375 318.438C499.916 358.289 515.636 421.054 515.636 421.054C515.636 421.054 523.235 393.964 567.611 369.253C594.295 354.345 625.097 346.804 638.148 344.077C641.339 343.381 644.123 346.282 643.311 349.472C640.469 360.668 627.823 381.725 597.427 391.876C556.009 405.682 539.013 417.051 518.305 440.081C503.977 455.975 500.264 463.922 495.566 489.271C493.941 498.089 493.477 507.138 494.289 516.071C494.927 523.38 496.088 531.269 498.06 534.228C500.322 537.592 505.427 537.012 506.703 533.183C513.258 514.041 533.387 464.444 569.815 450.464C596.441 440.255 611.117 437.18 618.658 436.31C622.254 435.904 625.155 439.21 624.401 442.749L624.459 442.691Z" fill="#4B8C4A"/>
<path d="M317.308 170.926C316.67 169.765 315.742 168.837 314.64 168.083C310.811 165.531 300.776 159.846 301.008 158.512C301.124 157.874 301.298 156.772 301.588 155.669C301.878 154.219 300.486 153.001 299.094 153.581C288.594 157.758 263.303 168.315 282.678 167.503C298.804 166.807 306.171 168.373 309.651 171.274C311.797 173.072 311.623 176.32 309.361 178.003C305.127 181.193 298.92 180.903 291.437 181.599C278.733 182.701 242.594 178.641 247.989 164.545C253.384 150.449 263.129 148.302 270.728 143.72C278.269 139.079 284.94 126.956 270.728 115.296C260.229 106.653 251.179 102.07 231.167 94.8771C211.618 87.8001 201.119 95.2832 200.017 100.156C198.915 105.029 199.495 120.981 207.036 124.229C214.577 127.478 217.825 127.246 238.418 126.375C259.01 125.563 246.829 139.369 246.829 139.369C246.829 139.369 226.062 158.164 204.715 199.988C188.183 232.414 203.613 223.597 211.444 218.028C214.635 215.708 218.231 213.91 222.002 212.691C226.236 211.357 232.095 209.849 238.186 209.153C250.135 207.703 251.005 213.213 250.193 223.365C249.381 233.516 257.096 226.207 260.345 233.922C263.593 241.637 254.486 236.185 254.486 236.185C254.486 236.185 247.989 230.906 241.666 231.08C235.343 231.312 231.515 231.08 222.582 238.389C213.648 245.698 214.229 247.67 215.679 248.714C217.361 249.933 220.087 247.322 220.087 247.322C220.087 247.322 229.485 235.721 236.155 235.14C242.826 234.502 240.39 237.983 232.269 244.828C224.148 251.673 227.57 261.824 227.57 261.824L233.719 276.152L235.111 279.459C235.111 279.459 238.592 287.696 244.334 266.117C251.353 239.549 252.978 252.311 277.631 246.394C302.168 240.477 287.898 224.989 287.898 224.989C287.898 224.989 273.28 224.177 284.766 217.97C296.251 211.763 294.105 194.129 279.487 197.377C264.869 200.626 228.846 202.25 223.742 200.336C218.637 198.421 217.245 201.148 230.761 184.615C244.334 168.083 231.863 176.784 254.022 185.022C273.164 192.157 296.425 188.966 303.27 187.632C322.993 183.803 319.164 174.812 317.134 171.042L317.308 170.926ZM243.174 121.329C243.174 121.329 213.532 124.345 208.66 119.472C203.787 114.6 202.569 105.435 206.049 100.62C209.472 95.7472 220.667 97.1974 220.667 97.1974C231.399 99.0537 258.604 111.235 268.35 121.155C274.208 127.13 274.034 132.408 272.99 135.599C272.352 137.513 270.96 139.137 268.64 140.587L255.588 148.709C255.124 148.999 253.732 148.128 253.964 146.852C254.544 143.72 256.11 140.181 255.704 131.886C255.182 120.691 243.116 121.329 243.116 121.329H243.174Z" fill="#AF3824"/>
</svg>
